<?xml version="1.0" encoding="UTF-8"?>
<svg width="157px" height="157px" viewBox="0 0 157 157" version="1.1" xmlns="http://www.w3.org/2000/svg" xmlns:xlink="http://www.w3.org/1999/xlink">
    <!-- Generator: Sketch 54.1 (76490) - https://sketchapp.com -->
    <title>blue</title>
    <desc>Created with Sketch.</desc>
    <g id="Page-1" stroke="none" stroke-width="1" fill="none" fill-rule="evenodd">
        <g id="verify_big" transform="translate(0.070312, 0.070312)" fill-rule="nonzero">
            <path d="M0.00111601563,77.9296875 C0.00111601563,120.965402 34.8939732,155.858259 77.9296875,155.858259 C120.965402,155.858259 155.858259,120.958259 155.858259,77.9296875 C155.858259,34.901116 120.958259,0.00111601563 77.9296875,0.00111601563 C34.901116,0.00111601563 0.00111601563,34.901116 0.00111601563,77.9296875 Z" id="Path" fill="#FB7299"></path>
            <path d="M30.3868303,59.8796875 C41.7842665,59.4505936 53.1144844,57.9317656 64.2225447,55.3439732 C65.7011162,50.958259 66.0296875,46.2725447 65.151116,41.7225447 C64.0064874,36.8525695 62.1915575,32.165002 59.758259,27.7939732 C58.9296875,27.1796875 60.9011162,24.908259 65.7796875,24.908259 C73.1314452,25.0700743 79.8965936,28.9585546 83.7368303,35.2296875 C87.4725445,42.551116 83.7368303,51.3154018 84.7725447,52.2439732 C85.815402,53.1725447 94.008259,49.458259 97.1296875,48.4225447 C103.513418,45.8570955 110.483102,45.1104319 117.265402,46.2654018 C122.779931,49.6461707 125.820771,55.9287129 125.051116,62.351116 C124.322545,69.2582588 118.093973,68.951116 110.822545,67.708259 C102.027573,67.2815688 93.223099,68.3269039 84.7725447,70.801116 C81.4511162,71.9439732 79.2725447,72.5654018 77.7154018,75.251116 C76.151116,77.9296875 63.0725445,107.63683 61.4225447,111.758259 C58.63324,116.798717 54.4059339,120.894231 49.2796875,123.522545 C43.4664421,126.033363 36.8085685,125.649356 31.3225447,122.48683 C26.2368305,118.565402 24.8868305,115.579687 30.3868303,113.722545 C35.8868303,111.865402 46.5725445,98.558259 49.2796875,94.4368303 C51.9796875,90.3082588 61.8368303,76.5868303 59.658259,75.151116 C53.3237262,74.7310748 46.9647128,75.4298409 40.8725447,77.2154018 C37.858259,78.1439732 36.408259,79.5868303 33.8154018,76.2868303 C31.1796423,72.100417 29.6781047,67.3004196 29.458259,62.358259 C29.8011162,60.7154018 30.1154018,59.8796875 30.3868303,59.8796875 L30.3868303,59.8796875 Z M83.5868303,85.5368303 C85.0368303,84.3154018 88.2582588,84.7225445 90.1225447,84.8225447 C96.1939732,85.815402 102.115402,87.5296875 107.765402,89.9368303 C113.365402,92.701116 132.351116,99.443973 128.515402,111.615402 C124.679688,123.779687 123.015402,124.801116 119.38683,121.83683 C115.758259,118.879687 84.3154018,91.1725445 83.3868303,89.6368303 C82.4699654,88.3965122 82.5535991,86.6820217 83.5868303,85.5368303 L83.5868303,85.5368303 Z" id="Shape" fill="#FFFFFF"></path>
        </g>
        <g id="verify_1" fill-rule="nonzero">
            <path d="M78.5,157 C35.1456471,157 5.45555602e-15,121.854353 0,78.5 C-5.45555602e-15,35.1456471 35.1456471,8.18333403e-15 78.5,0 C121.854353,-8.18333403e-15 157,35.1456471 157,78.5 C156.954859,121.835641 121.835641,156.954859 78.5,157 Z" id="Path" fill="#FFFFFF"></path>
            <path d="M78.5,0 C35.1456471,-2.09124193e-15 4.18248386e-15,35.1456471 0,78.5 C-6.27372579e-15,121.854353 35.1456471,157 78.5,157 C121.854353,157 157,121.854353 157,78.5 C157,57.6805055 148.729488,37.7137234 134.007882,22.9921177 C119.286277,8.27051197 99.3194945,2.09124193e-15 78.5,0 Z M62.2537493,138.634673 L70.164967,86.4583083 L25.5230954,85.9874025 L91.44991,18.3653269 L83.9625075,70.8242352 L131.476905,71.4835033 L62.2537493,138.634673 Z" id="Shape" fill="#4AC7FF"></path>
        </g>
    </g>
</svg>
